<svg xmlns="http://www.w3.org/2000/svg" width="800" height="440" viewBox="0 0 800 440">
  <defs>
    <linearGradient id="bg" x1="0%" y1="0%" x2="100%" y2="100%">
      <stop offset="0%" style="stop-color:#0d0012"/>
      <stop offset="100%" style="stop-color:#180020"/>
    </linearGradient>
    <radialGradient id="glow" cx="50%" cy="50%" r="40%">
      <stop offset="0%" style="stop-color:#9C27B033"/>
      <stop offset="100%" style="stop-color:#9C27B000"/>
    </radialGradient>
    <filter id="blur"><feGaussianBlur stdDeviation="12"/></filter>
    <filter id="gf"><feGaussianBlur stdDeviation="4"/></filter>
  </defs>
  <rect width="800" height="440" fill="url(#bg)"/>
  <line x1="0" y1="110" x2="800" y2="110" stroke="#9C27B009" stroke-width="1"/>
  <line x1="0" y1="220" x2="800" y2="220" stroke="#9C27B009" stroke-width="1"/>
  <line x1="0" y1="330" x2="800" y2="330" stroke="#9C27B009" stroke-width="1"/>
  <line x1="200" y1="0" x2="200" y2="440" stroke="#9C27B009" stroke-width="1"/>
  <line x1="400" y1="0" x2="400" y2="440" stroke="#9C27B009" stroke-width="1"/>
  <line x1="600" y1="0" x2="600" y2="440" stroke="#9C27B009" stroke-width="1"/>
  <!-- Glow -->
  <ellipse cx="400" cy="200" rx="175" ry="125" fill="#9C27B022" filter="url(#blur)"/>
  <!-- Brain outline - simplified -->
  <path d="M310 230 Q290 200 295 170 Q300 140 330 130 Q350 122 370 135 Q385 115 410 115 Q435 115 448 132 Q465 122 485 132 Q508 145 510 170 Q515 198 498 220 Q485 240 465 248 Q450 265 430 268 Q415 275 400 270 Q385 275 370 268 Q350 265 335 248 Q315 243 310 230Z" fill="none" stroke="#9C27B0" stroke-width="2.5" opacity="0.85"/>
  <!-- Neural connections inside -->
  <line x1="355" y1="160" x2="400" y2="180" stroke="#CE93D8" stroke-width="1.5" opacity="0.6"/>
  <line x1="400" y1="180" x2="445" y2="160" stroke="#CE93D8" stroke-width="1.5" opacity="0.6"/>
  <line x1="400" y1="180" x2="400" y2="220" stroke="#CE93D8" stroke-width="1.5" opacity="0.6"/>
  <line x1="340" y1="200" x2="400" y2="180" stroke="#CE93D8" stroke-width="1.5" opacity="0.5"/>
  <line x1="460" y1="200" x2="400" y2="180" stroke="#CE93D8" stroke-width="1.5" opacity="0.5"/>
  <line x1="365" y1="240" x2="400" y2="220" stroke="#CE93D8" stroke-width="1.5" opacity="0.5"/>
  <line x1="435" y1="240" x2="400" y2="220" stroke="#CE93D8" stroke-width="1.5" opacity="0.5"/>
  <!-- Node dots -->
  <circle cx="355" cy="160" r="5" fill="#9C27B0"/>
  <circle cx="445" cy="160" r="5" fill="#9C27B0"/>
  <circle cx="340" cy="200" r="5" fill="#AB47BC"/>
  <circle cx="460" cy="200" r="5" fill="#AB47BC"/>
  <circle cx="400" cy="180" r="7" fill="#CE93D8"/>
  <circle cx="400" cy="220" r="5" fill="#9C27B0"/>
  <circle cx="365" cy="240" r="4" fill="#AB47BC"/>
  <circle cx="435" cy="240" r="4" fill="#AB47BC"/>
  <!-- Lightning bolt = performance -->
  <path d="M408 145 L393 178 L402 178 L390 210 L410 172 L400 172Z" fill="#CE93D8" opacity="0.7"/>
  <!-- Label -->
  <text x="400" y="380" text-anchor="middle" font-family="sans-serif" font-size="13" fill="#9C27B066" letter-spacing="5" font-weight="700">MINDSET &amp; PERFORMANCE</text>
</svg>
